<mxfile host="Electron" modified="2023-12-10T09:18:57.328Z" agent="Mozilla/5.0 (Windows NT 10.0; Win64; x64) AppleWebKit/537.36 (KHTML, like Gecko) draw.io/22.0.3 Chrome/114.0.5735.289 Electron/25.8.4 Safari/537.36" etag="a5Vd0V2pth3hFiPB9m8C" version="22.0.3" type="device">
  <diagram name="第 1 页" id="9mlO3gLvQQBxHcpap2ac">
    <mxGraphModel dx="978" dy="566" grid="1" gridSize="10" guides="1" tooltips="1" connect="1" arrows="1" fold="1" page="1" pageScale="1" pageWidth="827" pageHeight="1169" math="0" shadow="0">
      <root>
        <mxCell id="0" />
        <mxCell id="1" parent="0" />
        <mxCell id="fT-omgYzPx1EpwDV7GyS-1" value="客户PC" style="verticalAlign=top;align=left;spacingTop=8;spacingLeft=2;spacingRight=12;shape=cube;size=10;direction=south;fontStyle=4;html=1;whiteSpace=wrap;" vertex="1" parent="1">
          <mxGeometry x="100" y="270" width="180" height="120" as="geometry" />
        </mxCell>
        <mxCell id="fT-omgYzPx1EpwDV7GyS-2" value="Java Swing&lt;br&gt;Client 界面" style="shape=module;align=left;spacingLeft=20;align=center;verticalAlign=top;whiteSpace=wrap;html=1;spacingTop=3;" vertex="1" parent="1">
          <mxGeometry x="140" y="310" width="100" height="50" as="geometry" />
        </mxCell>
        <mxCell id="fT-omgYzPx1EpwDV7GyS-3" value="UniWood 服务器" style="verticalAlign=top;align=left;spacingTop=8;spacingLeft=2;spacingRight=12;shape=cube;size=10;direction=south;fontStyle=4;html=1;whiteSpace=wrap;" vertex="1" parent="1">
          <mxGeometry x="410" y="210" width="200" height="240" as="geometry" />
        </mxCell>
        <mxCell id="fT-omgYzPx1EpwDV7GyS-6" value="" style="endArrow=none;html=1;rounded=0;" edge="1" parent="1" source="fT-omgYzPx1EpwDV7GyS-3" target="fT-omgYzPx1EpwDV7GyS-1">
          <mxGeometry width="50" height="50" relative="1" as="geometry">
            <mxPoint x="260" y="470" as="sourcePoint" />
            <mxPoint x="310" y="420" as="targetPoint" />
            <Array as="points" />
          </mxGeometry>
        </mxCell>
        <mxCell id="fT-omgYzPx1EpwDV7GyS-7" value="&amp;lt;&amp;lt; TCP/IP 连接 &amp;gt;&amp;gt;" style="edgeLabel;html=1;align=center;verticalAlign=middle;resizable=0;points=[];" vertex="1" connectable="0" parent="fT-omgYzPx1EpwDV7GyS-6">
          <mxGeometry x="-0.0779" relative="1" as="geometry">
            <mxPoint as="offset" />
          </mxGeometry>
        </mxCell>
        <mxCell id="fT-omgYzPx1EpwDV7GyS-8" value="服务器&lt;br&gt;配置参数" style="shape=module;align=left;spacingLeft=20;align=center;verticalAlign=top;whiteSpace=wrap;html=1;spacingTop=3;" vertex="1" parent="1">
          <mxGeometry x="510" y="370" width="80" height="50" as="geometry" />
        </mxCell>
        <mxCell id="fT-omgYzPx1EpwDV7GyS-9" value="MySQL&lt;br&gt;数据库" style="shape=module;align=left;spacingLeft=20;align=center;verticalAlign=top;whiteSpace=wrap;html=1;spacingTop=3;" vertex="1" parent="1">
          <mxGeometry x="420" y="370" width="80" height="50" as="geometry" />
        </mxCell>
        <mxCell id="fT-omgYzPx1EpwDV7GyS-10" value="UniWood&lt;br&gt;服务端系统" style="shape=module;align=left;spacingLeft=20;align=center;verticalAlign=top;whiteSpace=wrap;html=1;spacingTop=3;" vertex="1" parent="1">
          <mxGeometry x="430" y="250" width="90" height="50" as="geometry" />
        </mxCell>
        <mxCell id="fT-omgYzPx1EpwDV7GyS-12" value="" style="rounded=0;orthogonalLoop=1;jettySize=auto;html=1;endArrow=oval;endFill=0;sketch=0;sourcePerimeterSpacing=0;targetPerimeterSpacing=0;endSize=10;exitX=0.75;exitY=1;exitDx=0;exitDy=0;" edge="1" parent="1" source="fT-omgYzPx1EpwDV7GyS-10">
          <mxGeometry relative="1" as="geometry">
            <mxPoint x="497.5" y="310" as="sourcePoint" />
            <mxPoint x="498" y="320" as="targetPoint" />
          </mxGeometry>
        </mxCell>
        <mxCell id="fT-omgYzPx1EpwDV7GyS-16" value="配置" style="edgeLabel;html=1;align=center;verticalAlign=middle;resizable=0;points=[];fontSize=9;" vertex="1" connectable="0" parent="fT-omgYzPx1EpwDV7GyS-12">
          <mxGeometry x="1" y="3" relative="1" as="geometry">
            <mxPoint x="-3" y="12" as="offset" />
          </mxGeometry>
        </mxCell>
        <mxCell id="fT-omgYzPx1EpwDV7GyS-13" value="" style="ellipse;whiteSpace=wrap;html=1;align=center;aspect=fixed;fillColor=none;strokeColor=none;resizable=0;perimeter=centerPerimeter;rotatable=0;allowArrows=0;points=[];outlineConnect=1;" vertex="1" parent="1">
          <mxGeometry x="315" y="470" width="10" height="10" as="geometry" />
        </mxCell>
        <mxCell id="fT-omgYzPx1EpwDV7GyS-14" value="" style="endArrow=open;endSize=12;dashed=1;html=1;rounded=0;entryX=0.5;entryY=0;entryDx=0;entryDy=0;exitX=0.341;exitY=1.02;exitDx=0;exitDy=0;exitPerimeter=0;" edge="1" parent="1" source="fT-omgYzPx1EpwDV7GyS-10" target="fT-omgYzPx1EpwDV7GyS-9">
          <mxGeometry width="160" relative="1" as="geometry">
            <mxPoint x="260" y="430" as="sourcePoint" />
            <mxPoint x="420" y="430" as="targetPoint" />
          </mxGeometry>
        </mxCell>
        <mxCell id="fT-omgYzPx1EpwDV7GyS-15" value="" style="endArrow=open;endSize=12;dashed=1;html=1;rounded=0;exitX=0.6;exitY=0.007;exitDx=0;exitDy=0;exitPerimeter=0;" edge="1" parent="1" source="fT-omgYzPx1EpwDV7GyS-8">
          <mxGeometry width="160" relative="1" as="geometry">
            <mxPoint x="544.0000000000001" y="370.35" as="sourcePoint" />
            <mxPoint x="503" y="320" as="targetPoint" />
            <Array as="points">
              <mxPoint x="558" y="320" />
            </Array>
          </mxGeometry>
        </mxCell>
      </root>
    </mxGraphModel>
  </diagram>
</mxfile>
